<svg width="3000" height="2000" viewBox="0 0 3000 2000" fill="none" xmlns="http://www.w3.org/2000/svg">
<g clip-path="url(#clip0_5_990)">
<path d="M649.263 1875.05C649.263 1875.05 378.358 1867.87 262.597 1684.81C52.883 1353.17 147.392 1062.34 520.751 1083.99C938.42 1108.21 886.909 80.171 1610.11 575.13C1767.15 682.608 2116.67 456.894 2256.3 927.157C2289.5 1038.98 2538.86 1046.77 2700.02 1136.45C2952.81 1277.12 2881.42 1877.4 2642.61 1879.76C2403.79 1882.12 649.263 1875.05 649.263 1875.05Z" fill="#C2E7F2"/>
<path d="M399.573 1158.53C411.655 1161.33 466.241 1161.99 504.573 1153.37C512.564 1151.59 519.864 1149.39 525.905 1146.72C533.125 1143.54 538.57 1139.69 541.346 1135.06C545.68 1127.84 553.605 1103.14 562.924 1070.74C588.592 981.489 624.715 834.013 624.715 834.013C624.715 834.013 552.181 848.817 536.836 861.455C521.476 874.092 507.931 1074.56 493.492 1079.97C491.366 1080.77 487.695 1082.45 482.995 1084.77C482.765 1084.88 482.534 1085 482.304 1085.11C479.501 1086.49 476.344 1088.09 472.931 1089.85C442.984 1105.23 393.422 1132.96 388.289 1139.12C381.517 1147.25 381.965 1154.47 399.573 1158.53Z" fill="#739AF0"/>
<path d="M538.747 948.143C538.747 944.73 539.085 941.315 539.708 937.889C549.041 886.568 623.253 834.013 624.716 834.013L624.729 835.083C624.729 842.925 637.096 857.405 656.14 858.651C678.732 860.129 706.618 847.241 706.618 834.224C706.754 834.224 719.313 835.923 723.566 836.397C741.676 838.456 777.813 848.236 793.296 859.938C808.019 871.059 787.214 941.181 774.332 990.836C768.874 1011.84 764.851 1029.18 765.514 1036.86C765.84 1040.61 769.212 1091.58 772.219 1137.69C774.711 1175.72 776.959 1210.44 777.027 1212.62C777.189 1216.94 755.707 1232.07 719.638 1243.5C710.928 1246.27 701.352 1248.81 691.03 1250.92C672.515 1254.73 651.574 1257.18 628.792 1257.1C621.343 1257.07 614.285 1256.7 607.621 1256.03C556.098 1250.98 538.449 1192.26 538.747 948.143Z" fill="#739AF0"/>
<path d="M706.601 833.62C707.036 813.687 706.708 789.886 704.015 769.779L624.453 782.781C624.453 782.781 624.368 807.071 624.717 834.014C624.67 834.02 622.554 859.003 653.336 862.661C684.116 866.317 707.431 852.907 706.601 833.62Z" fill="#D9935C"/>
<path d="M640.04 1887.11C650.043 1880.95 644.166 1835.32 644.166 1835.32C644.166 1835.32 597.31 1798.12 590.994 1826.76C584.678 1855.4 546.77 1868.39 525.176 1871.98C510.27 1874.45 504.769 1882.16 503.357 1887.05L640.04 1887.11Z" fill="#233862"/>
<path d="M712.922 1102.55C712.922 1178.85 749.899 1158.29 772.221 1137.69C769.214 1091.58 767.101 928.273 767.101 928.273C767.101 928.273 712.922 993.288 712.922 1102.55Z" fill="#4A75CB"/>
<path d="M472.932 1089.85C474.408 1100.55 491.313 1131.7 504.574 1153.38C512.565 1151.59 519.865 1149.39 525.906 1146.72C533.126 1143.54 538.571 1139.69 541.347 1135.06C545.681 1127.84 553.606 1103.14 562.925 1070.74C556.03 1030.86 549.475 991.486 549.475 991.486L547.442 965.074C547.442 967.105 516.519 1083.15 502.514 1085.85C494.074 1087.49 488.088 1085.5 482.995 1084.77C482.765 1084.88 482.534 1085 482.304 1085.11C479.501 1086.49 476.345 1088.09 472.932 1089.85Z" fill="#4A75CB"/>
<path d="M783.616 1887.11C793.619 1880.95 787.742 1835.32 787.742 1835.32C787.742 1835.32 740.886 1798.12 734.57 1826.76C728.254 1855.4 690.346 1868.39 668.752 1871.98C653.846 1874.45 648.43 1882.16 647.018 1887.05L783.616 1887.11Z" fill="#233862"/>
<path d="M714.178 746.834C714.178 746.834 767.291 663.093 665.305 657.551C665.305 657.551 627.053 662.054 618.393 653.394C618.393 653.394 588.722 698.489 616.432 746.834C644.141 795.18 714.178 746.834 714.178 746.834Z" fill="#233862"/>
<path d="M626.813 790.533C634.545 796.616 657.212 802.657 663.765 803.363C663.765 803.363 697.379 795.868 703.488 792.182C712.952 786.446 712.342 774.835 712.827 758.694C713.409 739.588 715.335 724.582 713.2 713.568C710.666 700.391 702.311 692.896 678.922 690.859C635.985 687.132 618.098 697.883 617.35 712.279C617.156 716.145 616.975 719.83 616.851 723.321C615.134 768.213 618.68 784.132 626.813 790.533Z" fill="#D9935C"/>
<path d="M616.464 738.036C616.879 764.042 623.893 779.437 628.976 781.382C634.825 783.621 641.712 785.475 648.891 786.704C651.309 786.988 653.626 786.907 653.6 785.536C653.52 781.434 648.04 776.377 652.113 772.745C656.386 768.935 679.316 767.651 681.163 775.965C682.065 780.018 674.67 787.175 679.736 787.339C681.274 787.078 682.783 786.781 684.223 786.405C692.574 784.228 699.127 780.277 701.888 778.611C711.35 772.875 710.73 764.079 712.826 748.067C714.182 737.709 714.182 743.323 712.826 758.694C711.408 774.78 714.182 785.106 703.487 792.182C697.537 796.12 663.267 811.517 663.267 811.517C663.766 803.363 634.544 796.616 626.814 790.533C619.635 784.894 616.033 771.843 616.464 738.036Z" fill="#233862"/>
<path d="M777.024 1212.62C777.186 1216.94 755.704 1232.07 719.634 1243.5C716.73 1244.43 713.719 1245.32 710.627 1246.18C710.586 1246.19 710.557 1246.22 710.553 1246.27C707.188 1285.75 698.079 1341.52 689.862 1395.34C689.862 1395.34 689.862 1395.34 689.862 1395.35C687.735 1409.3 685.677 1423.12 683.78 1436.49C678.768 1471.87 675.017 1504.1 674.611 1527.31V1527.55C674.434 1538.2 683.414 1564.76 684.092 1570.9C684.511 1574.65 684.851 1578.62 685.094 1582.77C686.07 1599.39 685.677 1619.03 684.335 1640C678.443 1731.51 654.265 1848.59 645.638 1853.58C628.49 1863.49 597.282 1853.57 581.422 1851.25C574.853 1850.27 569.597 1844.68 569.935 1838.06C577.682 1686.19 555.428 1474.69 538.795 1344.67C538.361 1341.28 537.928 1337.96 537.508 1334.7C535.518 1319.37 534.203 1305.05 533.377 1292.14C532.618 1280.82 532.252 1270.54 532.09 1261.63C532.05 1258.85 532.022 1256.19 532.009 1253.69C531.969 1245.55 538.443 1192.26 538.741 948.142C538.747 942.502 543.366 937.888 549.004 937.888H698.291C712.718 937.888 724.325 949.693 724.144 964.119C723.911 982.741 724.584 1008.74 728.626 1033.56C734.136 1067.45 745.936 1099.12 770.289 1106.74C770.316 1106.75 770.336 1106.76 770.348 1106.79C770.458 1107.03 771.124 1108.52 772.193 1110.99C772.198 1111 772.201 1111.01 772.201 1111.02C772.431 1117.15 772.688 1123.39 772.972 1129.75C773.027 1131.03 773.081 1132.31 773.149 1133.6C773.176 1134.36 773.217 1135.1 773.257 1135.86C773.312 1137.15 773.379 1138.45 773.447 1139.75C773.542 1141.89 773.649 1144.04 773.772 1146.22C773.867 1147.93 773.961 1149.64 774.056 1151.36C774.233 1154.66 774.437 1158.01 774.652 1161.38C774.706 1162.46 774.774 1163.53 774.856 1164.63C775.14 1168.99 775.438 1173.42 775.777 1177.88C775.871 1179.24 775.979 1180.61 776.089 1181.99C776.129 1182.66 776.184 1183.32 776.238 1183.98C776.372 1185.73 776.508 1187.48 776.657 1189.24C776.806 1191.1 776.969 1192.96 777.131 1194.85C777.728 1201.7 776.847 1207.81 777.024 1212.62Z" fill="#2B478B"/>
<path d="M684.336 1640C678.444 1731.51 654.266 1848.59 645.639 1853.58C628.491 1863.49 597.283 1853.57 581.423 1851.25C574.854 1850.27 569.598 1844.68 569.936 1838.06C577.683 1686.19 555.429 1474.69 538.796 1344.67C538.362 1341.28 537.929 1337.96 537.509 1334.7C535.519 1319.37 534.204 1305.05 533.378 1292.14C541.288 1240.59 585.932 1237.83 626.418 1344.47C621.406 1379.84 685.677 1619.03 684.336 1640Z" fill="#233862"/>
<path d="M778.698 1523C779.925 1533.58 792.305 1558.74 793.792 1564.73C814.26 1647.04 802.953 1842.21 792.805 1850.01C777.105 1862.09 744.86 1856.35 728.837 1856.14C722.196 1856.04 716.255 1851.18 715.721 1844.57C703.135 1689.07 650.986 1475.48 617.449 1349.84C600.563 1286.55 598.17 1240.02 598.17 1240.02C598.17 1240.02 754.91 1143.98 771.861 1196.44C786.862 1242.87 769.244 1441.78 778.698 1523Z" fill="#2B478B"/>
<path d="M619.057 634.133C620.138 632.917 621.285 631.74 622.496 630.596C627.608 625.739 633.766 621.548 641.17 618.459C668.497 607.059 691.164 617.58 705.327 628.356C706.723 629.409 708.036 630.472 709.256 631.525C716.956 638.069 721.255 643.907 721.255 643.907C721.255 643.907 734.529 662.014 734.086 700.182L597.37 701.644C597.37 701.644 595.363 660.42 619.057 634.133Z" fill="#FFA412"/>
<path d="M695.721 700.578L688.21 700.663C688.054 698.485 688.423 648.866 706.93 629.603C708.326 630.656 708.035 630.472 709.256 631.525C691.682 648.488 695.685 700.067 695.721 700.578Z" fill="#E27F2B"/>
<path d="M636.311 701.229C634.75 670.851 623.116 638.928 619.975 633.253C621.056 632.003 621.285 631.773 622.496 630.596C624.673 634.347 642.506 667.405 644.39 701.142L734.086 700.183C734.086 700.183 688.634 710.376 661.21 710.717C633.784 711.058 597.37 701.644 597.37 701.644L636.311 701.229Z" fill="#E27F2B"/>
<path d="M728.936 837.123C728.936 837.123 682.741 890.936 680.032 937.892L703.566 939.14C703.566 939.14 709.493 886.844 744.258 840.34C744.258 840.34 738.82 839.022 737.011 838.664C734.59 838.185 728.936 837.123 728.936 837.123Z" fill="#2B478B"/>
<path d="M613.766 836.384C580.676 886.46 577.127 938.907 577.127 938.907L553.373 938.498C555.324 901.589 578.513 860.989 591.314 841.754C591.314 841.754 607.751 837.603 613.766 836.384Z" fill="#2B478B"/>
<path d="M665.349 1352.82H684.424C693.29 1348.79 741.053 1328.1 786.963 1327.85C820.088 1327.67 857.833 1352.42 860.105 1352.68C865.862 1353.36 840.916 1353.59 840.916 1353.59C840.916 1353.59 803.532 1337.05 786.736 1336.66C770.725 1336.28 735.182 1347.92 720.983 1352.82H827.889C836.828 1352.82 844.142 1360.13 844.142 1369.07V1490.98C844.142 1499.92 836.827 1507.23 827.889 1507.23H665.349C656.409 1507.23 649.096 1499.92 649.096 1490.98V1369.07C649.095 1360.13 656.409 1352.82 665.349 1352.82Z" fill="#FFA412"/>
<path d="M718.174 1352.82H880.713C889.653 1352.82 896.968 1360.13 896.968 1369.07V1490.98C896.968 1499.92 889.653 1507.23 880.713 1507.23H718.174C709.234 1507.23 701.919 1499.92 701.919 1490.98V1369.07C701.92 1360.13 709.234 1352.82 718.174 1352.82Z" fill="#E27F2B"/>
<path d="M765.909 1126C764.744 1181.1 771.612 1290.83 771.612 1290.83H804.12C819.467 1213.62 824.885 1163.95 824.885 1136.86C824.885 1131.53 824.857 1126.56 824.816 1121.96C824.614 1098.83 823.991 1085.39 823.991 1085.39C830.086 945.217 802.088 870.259 793.298 859.937C784.494 849.616 744.265 840.338 744.265 840.338C744.265 840.338 730.978 879.063 725.56 910.217C720.142 941.37 768.173 1072.27 766.195 1117.01C766.071 1119.8 765.978 1122.8 765.909 1126Z" fill="#739AF0"/>
<path d="M343.989 1163.51H370.279C372.88 1163.51 375.021 1165.66 375.021 1168.27V1884.15C375.021 1886.77 372.88 1888.9 370.279 1888.9H343.989C341.375 1888.9 339.249 1886.77 339.249 1884.15V1168.27C339.249 1165.66 341.375 1163.51 343.989 1163.51Z" fill="#F1A34F"/>
<path d="M343.989 1163.51H370.279C372.88 1163.51 375.021 1165.66 375.021 1168.27V1190.45H339.249V1168.27C339.249 1165.66 341.375 1163.51 343.989 1163.51Z" fill="#2B478B"/>
<path d="M375.021 1884.16C375.021 1886.77 372.88 1888.91 370.279 1888.91H343.989C341.375 1888.91 339.249 1886.77 339.249 1884.16V1865.02H375.021V1884.16Z" fill="#2B478B"/>
<path d="M356.911 1210.42C358.401 1210.42 359.62 1211.64 359.62 1213.13V1843.26C359.62 1844.75 358.401 1845.97 356.911 1845.97C355.421 1845.97 354.202 1844.75 354.202 1843.26V1213.13C354.202 1211.64 355.421 1210.42 356.911 1210.42Z" fill="#E27F2B"/>
<path d="M771.611 1290.83C771.611 1290.83 764.744 1181.1 765.908 1126C791.901 1117.62 812.869 1119.46 824.814 1121.96C824.855 1126.56 824.883 1131.53 824.883 1136.86C824.883 1163.95 819.465 1213.62 804.118 1290.83C810.89 1319.27 810.439 1349.98 798.7 1355.39C786.961 1360.81 748.132 1340.49 748.583 1331.46C749.037 1322.43 771.611 1290.83 771.611 1290.83Z" fill="#D9935C"/>
<path d="M326.828 1163.96C329.996 1152.34 332.351 1145.9 340.35 1140.25C351.973 1132.05 365.774 1134.27 376.058 1136.08C383.921 1137.46 392.154 1134.82 395.605 1133.5C413.818 1121.36 459.54 1096.33 482.306 1085.11C497.842 1094.12 516.927 1111.94 525.907 1146.72C490.867 1162.18 414.176 1161.91 399.575 1158.54C399.575 1158.54 386.057 1168.36 375.773 1169.26C371.878 1169.6 366.97 1168.47 362.379 1166.94C355.154 1164.52 347.398 1166.93 342.203 1173.35C337.205 1179.53 330.68 1182.92 327.972 1182.92C323.782 1182.92 324.834 1171.27 326.828 1163.96Z" fill="#D9935C"/>
<path d="M1205.69 1028.31C1192.28 1069.34 1119.24 1140.26 1109.14 1147.33C1109.14 1147.33 1092.14 1119 1095.54 1103.14C1098.32 1090.19 1126.76 1044.03 1136.49 1021.35C1137 1020.17 1137.46 1019.05 1137.85 1018C1139.19 1014.52 1139.89 1011.83 1139.73 1010.23C1139.25 1005.3 1123.76 993.313 1105.75 979.093C1082.36 960.601 1054.71 938.36 1050.22 922.984C1042.29 895.791 1014.81 788.116 1014.81 788.116C1014.81 788.116 1083.08 802.879 1102.34 819.875C1121.61 836.871 1204.32 978.504 1207.72 1014.76C1208.09 1018.72 1207.34 1023.29 1205.69 1028.31Z" fill="#FFA412"/>
<path d="M1205.69 1028.31C1192.28 1069.34 1119.24 1140.26 1109.14 1147.33C1109.14 1147.33 1092.14 1119 1095.54 1103.14C1098.47 1089.52 1129.79 1039.15 1137.85 1018C1149.99 1015.9 1178.48 1013.31 1205.69 1028.31Z" fill="#D9935C"/>
<path d="M1014.84 778.656L1014.79 787.018C1014.79 787.018 1017.07 813.168 984.868 816.987C952.667 820.817 928.419 809.135 929.292 788.955C932.192 773.33 935.229 760.255 935.444 747.326C935.524 742.522 935.194 737.423 934.3 731.667L996.697 730.42L1015.08 733.423L1014.84 778.656Z" fill="#D9935C"/>
<path d="M1015.07 733.425L1014.84 778.657C1008.21 781.739 1000.73 783.62 992.346 783.62C963.668 783.62 945.131 762.591 935.444 747.328C935.524 742.524 935.194 737.425 934.3 731.669L996.697 730.422L1015.07 733.425Z" fill="#CB7D45"/>
<path d="M959.838 1887.5C959.838 1887.5 956.809 1863.91 949.795 1849.88C942.781 1835.85 898.147 1844.78 898.147 1844.78C898.147 1844.78 889.22 1852.43 887.307 1888.14L959.838 1887.5Z" fill="#233862"/>
<path d="M1111.91 1887.42C1101.42 1881.02 1107.39 1833.27 1107.39 1833.27C1107.39 1833.27 1156.26 1794.17 1162.98 1824.1C1169.7 1854.04 1209.4 1867.47 1232.01 1871.14C1247.61 1873.67 1252.44 1882.31 1253.94 1887.42H1111.91Z" fill="#233862"/>
<path d="M1010.68 1534.78C1012.67 1545.74 1013.93 1554.73 1014.27 1561.17C1018.81 1649.79 1088.86 1852.4 1101.39 1857.13C1120.78 1864.44 1151.31 1848.89 1167.28 1843.8C1173.9 1841.69 1178.37 1835.02 1176.89 1828.24C1142.2 1668.77 1129.45 1439.12 1124.82 1303.16C1122.47 1234.68 1110.72 1187.38 1110.72 1187.38C1110.72 1187.38 939.868 1141.79 938.854 1199.45C937.954 1250.48 995.447 1450.6 1010.68 1534.78Z" fill="#2B478B"/>
<path d="M1010.68 1534.78L1124.82 1303.16C1122.47 1234.68 1110.72 1187.38 1110.72 1187.38C1110.72 1187.38 939.868 1141.79 938.854 1199.45C937.954 1250.48 995.447 1450.6 1010.68 1534.78Z" fill="#233862"/>
<path d="M1048.7 1199.66L958.377 1854.26C958.377 1854.26 918.714 1863.82 887.865 1856.17C887.865 1856.17 861.423 1508.02 863.626 1423.86C865.83 1339.69 844.648 1198.64 868.46 1183.08C892.272 1167.53 1048.7 1199.66 1048.7 1199.66Z" fill="#2B478B"/>
<path d="M1115.63 1200.87C1115.63 1200.87 1069.48 1227.78 1002.63 1227.02C976.574 1226.73 953.901 1224.78 934.662 1221.91C881.046 1213.96 853.988 1198.99 854.204 1193.41C854.385 1188.38 854.736 1171.67 855.371 1164.49C863.891 1066.23 859.484 989.803 870.95 932.391C871.086 931.699 871.222 931.008 871.369 930.329C886.541 857.337 910.324 815.403 922.13 798.203C926.447 791.926 929.155 788.957 929.291 788.957C929.291 802.576 958.297 814.337 981.944 812.796C1001.86 811.493 1014.79 796.344 1014.79 788.141L1014.81 788.119C1016.44 788.119 1104.67 849.44 1104.74 906.422C1105.05 1161.79 1120.53 1200.96 1115.63 1200.87Z" fill="#FFA412"/>
<path d="M934.787 1221.07C934.741 1221.35 934.707 1221.64 934.662 1221.91C881.046 1213.96 853.988 1198.99 854.204 1193.41C854.385 1188.38 854.736 1171.67 855.371 1164.49C863.891 1066.23 859.484 989.803 870.95 932.391C899.095 970.007 956.949 1068.53 934.787 1221.07Z" fill="#E27F2B"/>
<path d="M1081.65 1098.93L1074.45 1122.91L1067.29 1146.7L756.262 1053.14C755.82 1053.17 755.389 1053.12 754.981 1053C754.551 1052.87 754.154 1052.67 753.78 1052.41C749.86 1049.63 749.145 1039.47 752.16 1028.01C752.319 1027.38 752.5 1026.74 752.692 1026.1C756.329 1013.78 762.947 1004.67 768.023 1004.59C768.442 1004.58 768.839 1004.64 769.235 1004.75C769.643 1004.88 770.017 1005.06 770.38 1005.31L1081.65 1098.93Z" fill="#E9F3FE"/>
<path d="M1074.45 1122.91L1067.29 1146.7L756.262 1053.14C755.82 1053.17 755.389 1053.12 754.981 1053C754.551 1052.87 754.154 1052.67 753.78 1052.41C749.86 1049.63 749.145 1039.47 752.16 1028.01C764.873 1037.55 825.594 1079.76 929.234 1100.29C1036.37 1121.51 1069.52 1122.84 1074.45 1122.91Z" fill="#BED4F4"/>
<path d="M1082.25 1098.79C1077.05 1097.26 1069.64 1106.81 1065.71 1120.14C1061.77 1133.46 1062.8 1145.51 1068 1147.05C1073.2 1148.58 1080.61 1139.03 1084.54 1125.7C1088.48 1112.38 1087.45 1100.33 1082.25 1098.79Z" fill="#AFCDFB"/>
<path d="M772.634 996.521L735.968 990.572C735.572 990.38 735.186 990.244 734.756 990.176C734.348 990.12 733.951 990.108 733.543 990.176C728.512 990.924 723.153 1000.81 721.159 1013.51C721.046 1014.17 720.955 1014.82 720.876 1015.48C720.162 1021.1 720.264 1026.3 721.012 1030.46C721.828 1034.91 723.403 1038.15 725.555 1039.36C725.601 1039.4 725.646 1039.42 725.68 1039.44C726.088 1039.66 726.507 1039.8 726.949 1039.87C727.368 1039.94 727.799 1039.93 728.241 1039.85L1048.84 1091.87L1052.82 1067.35L1056.82 1042.64L772.634 996.521Z" fill="#E9F3FE"/>
<path d="M905.894 1063.94C837.321 1059.53 800.973 1023.27 772.635 996.52L735.969 990.571C735.573 990.379 735.187 990.243 734.757 990.175C734.349 990.119 733.952 990.107 733.544 990.175C728.513 990.923 723.154 1000.81 721.16 1013.51C721.047 1014.17 720.956 1014.82 720.877 1015.48C720.163 1021.1 720.265 1026.3 721.013 1030.45C722.735 1035.33 724.503 1038.64 725.556 1039.36C725.602 1039.39 725.647 1039.42 725.681 1039.44C726.089 1039.65 726.508 1039.8 726.95 1039.87C727.369 1039.94 727.8 1039.93 728.242 1039.85L1048.84 1091.87L1052.82 1067.35C1047.92 1067.93 1014.88 1070.95 905.894 1063.94Z" fill="#BED4F4"/>
<path d="M1057.4 1042.42C1052.04 1041.57 1045.95 1052.02 1043.79 1065.74C1041.63 1079.47 1044.23 1091.28 1049.59 1092.12C1054.94 1092.96 1061.04 1082.52 1063.19 1068.79C1065.35 1055.07 1062.75 1043.26 1057.4 1042.42Z" fill="#AFCDFB"/>
<path d="M943.341 1136.76C868.979 1124.93 819.826 1093.77 799.646 1078.7C792.757 1073.56 789.245 1070.28 789.245 1070.28C751.14 990.175 820.076 849.722 832.675 825.916C846.272 800.241 929.291 788.956 929.291 788.956C929.291 788.956 916.034 827.956 910.856 878.796C905.678 929.636 850.43 1028.73 852.696 1037.05C853.262 1039.15 859.936 1043.54 869.669 1049.1C898.528 1065.52 954.297 1092.02 957.685 1098.24C962.218 1106.54 943.341 1136.76 943.341 1136.76Z" fill="#D9935C"/>
<path d="M957.689 1098.23C957.689 1098.23 999.235 1081.61 1009.43 1088.41C1019.63 1095.21 1036.63 1105.41 1036.63 1112.2C1036.63 1119 1015.1 1137.13 996.968 1142.8C978.84 1148.46 943.337 1136.75 943.337 1136.75L957.689 1098.23Z" fill="#D9935C"/>
<path d="M910.856 878.796C905.678 929.636 850.43 1028.73 852.696 1037.05C853.262 1039.15 859.936 1043.54 869.669 1049.1C869.057 1049.14 868.434 1049.15 867.799 1049.13C824.335 1047.22 804.665 1071.26 799.645 1078.7C792.756 1073.56 789.244 1070.28 789.244 1070.28C751.139 990.176 820.075 849.723 832.674 825.917C846.271 800.242 929.29 788.957 929.29 788.957C929.29 788.957 916.034 827.955 910.856 878.796Z" fill="#FFA412"/>
<path d="M1018.72 755.404C1018.72 755.404 938.802 771.547 929.514 721.626C920.227 671.704 903.657 640.166 954.288 627.748C1004.92 615.33 1018.4 632.53 1025.56 648.439C1032.71 664.347 1039.27 749.918 1018.72 755.404Z" fill="#D9935C"/>
<path d="M931.111 736.019C931.111 736.019 915.661 703.046 902.777 688.404C889.892 673.762 896.92 600.554 952.558 602.897C1008.2 605.24 1028.11 645.065 1028.69 652.679C1029.28 660.292 984.184 654.436 971.885 664.392C959.586 674.348 971.299 690.747 957.244 696.603C943.188 702.46 932.06 702.46 934.403 715.344C936.745 728.23 931.111 736.019 931.111 736.019Z" fill="#233862"/>
<path d="M948.281 568.904C932.362 572.904 920.419 579.294 911.502 586.987C910.618 587.746 909.757 588.528 908.93 589.321L908.918 589.333C875.924 620.798 889.09 670.879 889.09 670.879C889.09 670.879 893.483 683.531 896.504 688.442C899.525 693.352 943.337 687.687 945.603 678.244C947.869 668.802 956.556 658.982 956.556 658.982C956.556 658.982 1002.74 655.808 1005.84 655.583C1016.28 654.827 1046.05 644.468 1046.05 644.468C1045.71 641.544 1028.95 548.645 948.281 568.904Z" fill="#FFA412"/>
<path d="M1073.41 634.655C1067.87 633.301 1058.42 631.793 1042.86 631.222C1042.86 631.222 1029.79 642.049 1003.8 650.301C991.588 634.914 956.8 597.832 911.501 586.987C911.365 586.953 911.24 586.919 911.105 586.886C910.142 588.098 909.598 588.506 908.93 589.322L908.918 589.334C908.714 589.571 908.499 589.855 908.261 590.206C945.138 596.631 980.189 638.049 992.219 653.553C981.896 656.092 970.021 658.097 956.556 658.982C956.556 658.982 1037.27 660.488 1074.16 641.063C1076.97 639.583 1076.5 635.409 1073.41 634.655Z" fill="#E27F2B"/>
<path d="M1155.6 1001.17C1154.1 1009.64 1149.53 1018.56 1136.49 1021.35C1137 1020.17 1137.46 1019.05 1137.85 1018C1139.19 1014.52 1139.89 1011.83 1139.73 1010.23C1139.25 1005.3 1123.76 993.313 1105.75 979.093C1104.27 971.025 1100.64 947.084 1105.74 928.083C1111.97 904.857 1157.3 991.535 1155.6 1001.17Z" fill="#E27F2B"/>
<path d="M861.002 1043.37C861.002 1043.37 805.482 1038.84 787.353 1071.13C787.353 1071.13 788.902 1082.02 799.647 1078.7C799.647 1078.7 846.613 1046.6 869.67 1049.1C869.67 1049.1 866.101 1043.47 861.002 1043.37Z" fill="#E27F2B"/>
<path d="M1136.49 1021.35C1136.49 1021.35 1165.3 1022.55 1201.56 1038.34C1201.56 1038.34 1209.61 1030.44 1206.4 1025.9C1203.19 1021.37 1152.14 1005.08 1136.49 1021.35Z" fill="#E27F2B"/>
<path d="M2181.6 1227.06L2233.84 1848.18C2233.84 1848.18 2239.32 1885.83 2211.31 1885.9C2165.26 1886.01 1982.11 1885.9 1982.11 1885.9C1982.11 1885.9 2016.77 1878.06 2016.35 1860.43C2015.86 1839.64 1955.3 1221.18 1955.3 1221.18L2181.6 1227.06Z" fill="#D86713"/>
<path d="M2196.08 1874.63C2151.24 1875.2 1976.31 1874.66 1967.25 1874.63C1970.66 1874.63 1996.97 1873.98 2000.69 1854.18C2000.98 1852.63 2001.13 1850.96 2001.13 1849.16C2001.11 1845.28 1998.98 1820.71 1995.53 1783.26C1992.44 1749.68 1988.28 1705.75 1983.62 1657.13C1965.58 1468.73 1940.07 1209.91 1940.07 1209.91L2166.38 1215.78L2203.5 1657.13L2210.75 1743.27L2217.26 1820.77L2218.62 1836.92C2218.62 1836.92 2225.01 1874.26 2196.08 1874.63Z" fill="#EE9849"/>
<path d="M2731.21 889.062L2603.97 1400.17L2586.55 1470.17L2527.28 1708.23H1426.26L1644.69 889.062H2731.21Z" fill="#F1A34F"/>
<path d="M2731.21 889.061L2748.85 894.94L2550.73 1726.01L2527.28 1708.23L2731.21 889.061Z" fill="#EE9849"/>
<path d="M2550.73 1726.01H1456.48L1426.26 1708.23H2527.28L2550.73 1726.01Z" fill="#D86713"/>
<path d="M2166.46 1874.88H1929.54V1886.14H2166.46V1874.88Z" fill="#F1A34F"/>
<path d="M2212.23 1725.65L2210.75 1743.27L2210.69 1743.92C2210.69 1743.92 2056.79 1758.68 1995.53 1783.26C1993.98 1766.42 1992.16 1746.98 1990.15 1725.65H2212.23Z" fill="#D86713"/>
<path opacity="0.4" d="M2196.08 1874.63C2151.24 1875.2 1976.31 1874.66 1967.25 1874.63C1970.66 1874.63 1996.97 1873.98 2000.69 1854.18C2018.7 1855.11 2118.88 1858.31 2217.26 1820.77L2218.62 1836.92C2218.62 1836.92 2225.01 1874.26 2196.08 1874.63Z" fill="#D86713"/>
<path opacity="0.4" d="M2565.89 1547.42L2525.85 1708.23H2155.16C2311.9 1658.44 2386.1 1585.59 2415.99 1547.42H2565.89Z" fill="#D86713"/>
<path d="M2722.91 899.891L2565.89 1547.42H1482.29L1658.25 899.891H2722.91Z" fill="#D2E4FF"/>
<path d="M1468.89 1547.42H1482.29L1479.6 1557.29L1466.64 1555.82L1468.89 1547.42Z" fill="#F1A34F"/>
<path d="M1917.91 516.562H1914.52V577.004H1917.91V516.562Z" fill="#739AF0"/>
<path d="M2106.03 516.562H2102.63V577.004H2106.03V516.562Z" fill="#739AF0"/>
<path d="M1941.68 516.562H1938.29V577.004H1941.68V516.562Z" fill="#739AF0"/>
<path d="M2123.01 516.562H2119.61V577.004H2123.01V516.562Z" fill="#739AF0"/>
<path d="M1874.9 459.086L1874.92 459.092L1874.8 459.012C1874.62 458.877 1874.43 458.748 1874.24 458.625L1705.32 343.211L1310.08 462.241L1307.24 581.15H1298.18C1292.82 581.15 1288.43 585.537 1288.43 590.899V600.649C1288.43 606.011 1292.82 610.398 1298.18 610.398H1329.6C1334.96 610.398 1339.35 606.011 1339.35 600.649V590.899C1339.35 585.537 1334.96 581.15 1329.6 581.15H1314.31L1388.84 500.989H1656.2V1547.42H1721.2V500.989H1776.44V523.737C1776.44 529.099 1780.83 533.487 1786.19 533.487H1869.06C1874.43 533.487 1878.81 529.1 1878.81 523.737V466.866C1878.81 463.692 1877.27 460.869 1874.9 459.086ZM1312.93 574.28L1315.69 500.989H1381.08L1312.93 574.28ZM1786.19 457.116C1781.38 457.116 1777.37 460.646 1776.59 465.241H1319.94L1704.38 349.434L1863.08 457.116H1786.19Z" fill="#739AF0"/>
<path d="M2689.46 842.696H2683.92L2682.69 770.181L2440.59 697.253L2337.08 767.966L2340.5 766.879C2337.22 766.879 2334.54 769.561 2334.54 772.838V807.601C2334.54 810.879 2337.22 813.56 2340.5 813.56H2391.16C2394.43 813.56 2397.12 810.879 2397.12 807.601V793.696H2430.89V1433.34H2470.62V793.696H2634.04L2679.6 842.695H2670.26C2666.98 842.695 2664.3 845.377 2664.3 848.654V854.614C2664.3 857.891 2666.98 860.573 2670.26 860.573H2689.46C2692.74 860.573 2695.42 857.891 2695.42 854.614V848.654C2695.42 845.378 2692.74 842.696 2689.46 842.696ZM2397.03 771.845C2396.55 769.037 2394.1 766.879 2391.16 766.879H2343.61L2441.17 701.057L2676.16 771.845H2397.03ZM2638.79 793.696H2679.27L2680.45 838.496L2638.79 793.696Z" fill="#739AF0"/>
<path d="M2360.53 861.307V857.064H2351.24V829.063H2343.56V857.064H2324.09V829.063H2316.4V857.064H2295.24V829.063H2287.55V857.064H2268.08V829.063H2260.4V857.064H2250.22V861.307H2260.4V874.94H2250.22V879.183H2260.4V892.816H2250.22V897.058H2260.4V910.691H2250.22V914.933H2260.4V928.566H2250.22V932.809H2260.4V946.442H2250.22V950.685H2260.4V961.716H2250.22V965.959H2260.4V979.592H2250.22V983.835H2260.4V997.468H2250.22V1001.71H2260.4V1015.34H2250.22V1019.59H2260.4V1033.22H2250.22V1037.46H2260.4V1051.09H2250.22V1055.34H2260.4V1068.35H2250.22V1072.59H2260.4V1086.22H2250.22V1090.47H2260.4V1104.1H2250.22V1108.34H2260.4V1121.98H2250.22V1126.22H2260.4V1139.85H2250.22V1144.09H2260.4V1157.73H2250.22V1161.97H2260.4V1173H2250.22V1177.24H2260.4V1190.88H2250.22V1195.12H2260.4V1208.75H2250.22V1212.99H2260.4V1226.63H2250.22V1230.87H2260.4V1244.5H2250.22V1248.75H2260.4V1262.38H2250.22V1266.62H2260.4V1278.79H2250.22V1283.03H2260.4V1296.66H2250.22V1300.9H2260.4V1314.54H2250.22V1318.78H2260.4V1332.41H2250.22V1336.65H2260.4V1350.29H2250.22V1354.53H2260.4V1368.16H2250.22V1372.4H2260.4V1383.44H2250.22V1387.68H2260.4V1401.31H2250.22V1405.55H2260.4V1419.19H2250.22V1423.43H2360.53V1419.19H2351.24V1405.55H2360.53V1401.31H2351.24V1387.68H2360.53V1383.44H2351.24V1372.4H2360.53V1368.16H2351.24V1354.53H2360.53V1350.29H2351.24V1336.65H2360.53V1332.41H2351.24V1318.78H2360.53V1314.54H2351.24V1300.9H2360.53V1296.66H2351.24V1283.03H2360.53V1278.79H2351.24V1266.62H2360.53V1262.38H2351.24V1248.75H2360.53V1244.5H2351.24V1230.87H2360.53V1226.63H2351.24V1212.99H2360.53V1208.75H2351.24V1195.12H2360.53V1190.88H2351.24V1177.24H2360.53V1173H2351.24V1161.97H2360.53V1157.73H2351.24V1144.09H2360.53V1139.85H2351.24V1126.22H2360.53V1121.98H2351.24V1108.34H2360.53V1104.1H2351.24V1090.47H2360.53V1086.22H2351.24V1072.59H2360.53V1068.35H2351.24V1055.34H2360.53V1051.09H2351.24V1037.46H2360.53V1033.22H2351.24V1019.59H2360.53V1015.34H2351.24V1001.71H2360.53V997.468H2351.24V983.835H2360.53V979.592H2351.24V965.959H2360.53V961.716H2351.24V950.685H2360.53V946.442H2351.24V932.81H2360.53V928.567H2351.24V914.934H2360.53V910.692H2351.24V897.059H2360.53V892.817H2351.24V879.184H2360.53V874.941H2351.24V861.308L2360.53 861.307ZM2316.4 861.307V874.94H2295.24V861.307H2316.4ZM2295.24 1401.31V1387.68H2316.4V1401.31H2295.24ZM2316.4 1405.55V1419.18H2295.24V1405.55H2316.4ZM2295.24 1383.43V1372.4H2316.4V1383.43H2295.24ZM2295.24 1368.16V1354.53H2316.4V1368.16H2295.24ZM2295.24 1350.28V1336.65H2316.4V1350.28H2295.24ZM2295.24 1332.41V1318.78H2316.4V1332.41H2295.24ZM2295.24 1314.53V1300.9H2316.4V1314.53H2295.24ZM2295.24 1296.66V1283.02H2316.4V1296.66H2295.24ZM2295.24 1278.78V1266.62H2316.4V1278.78H2295.24ZM2295.24 1262.38V1248.74H2316.4V1262.38H2295.24ZM2295.24 1244.5V1230.87H2316.4V1244.5H2295.24ZM2295.24 1226.62V1212.99H2316.4V1226.62H2295.24ZM2295.24 1208.75V1195.12H2316.4V1208.75H2295.24ZM2295.24 1190.87V1177.24H2316.4V1190.87H2295.24ZM2295.24 1173V1161.97H2316.4V1173H2295.24ZM2295.24 1157.72V1144.09H2316.4V1157.72H2295.24ZM2295.24 1139.85V1126.22H2316.4V1139.85H2295.24ZM2295.24 1121.97V1108.34H2316.4V1121.97H2295.24ZM2295.24 1104.1V1090.46H2316.4V1104.1H2295.24ZM2295.24 1086.22V1072.59H2316.4V1086.22H2295.24ZM2295.24 1068.35V1055.34H2316.4V1068.35H2295.24ZM2295.24 1051.09V1037.46H2316.4V1051.09H2295.24ZM2295.24 1033.22V1019.59H2316.4V1033.22H2295.24ZM2295.24 1015.34V1001.71H2316.4V1015.34H2295.24ZM2295.24 997.467V983.834H2316.4V997.467H2295.24ZM2295.24 979.591V965.958H2316.4V979.591H2295.24ZM2295.24 961.716V950.685H2316.4V961.716H2295.24ZM2295.24 946.442V932.81H2316.4V946.443L2295.24 946.442ZM2295.24 928.567V914.934H2316.4V928.567H2295.24ZM2295.24 910.691V897.058H2316.4V910.691H2295.24ZM2295.24 892.816V879.183H2316.4V892.816H2295.24ZM2268.08 861.307H2287.55V874.94H2268.08V861.307ZM2268.08 879.183H2287.55V892.816H2268.08V879.183ZM2268.08 897.058H2287.55V910.691H2268.08V897.058ZM2268.08 914.934H2287.55V928.567H2268.08V914.934ZM2268.08 932.81H2287.55V946.443H2268.08V932.81ZM2268.08 950.685H2287.55V961.716H2268.08V950.685ZM2268.08 965.958H2287.55V979.591H2268.08V965.958ZM2268.08 983.834H2287.55V997.467H2268.08V983.834ZM2268.08 1001.71H2287.55V1015.34H2268.08V1001.71ZM2268.08 1019.59H2287.55V1033.22H2268.08V1019.59ZM2268.08 1037.46H2287.55V1051.09H2268.08V1037.46ZM2268.08 1055.34H2287.55V1068.35H2268.08V1055.34ZM2268.08 1072.59H2287.55V1086.22H2268.08V1072.59ZM2268.08 1090.46H2287.55V1104.1H2268.08V1090.46ZM2268.08 1108.34H2287.55V1121.97H2268.08V1108.34ZM2268.08 1126.22H2287.55V1139.85H2268.08V1126.22ZM2268.08 1144.09H2287.55V1157.72H2268.08V1144.09ZM2268.08 1161.97H2287.55V1173H2268.08V1161.97ZM2268.08 1177.24H2287.55V1190.87H2268.08V1177.24ZM2268.08 1195.12H2287.55V1208.75H2268.08V1195.12ZM2268.08 1212.99H2287.55V1226.62H2268.08V1212.99ZM2268.08 1230.87H2287.55V1244.5H2268.08V1230.87ZM2268.08 1248.74H2287.55V1262.38H2268.08V1248.74ZM2268.08 1266.62H2287.55V1278.78H2268.08V1266.62ZM2268.08 1283.02H2287.55V1296.66H2268.08V1283.02ZM2268.08 1300.9H2287.55V1314.53H2268.08V1300.9ZM2268.08 1318.78H2287.55V1332.41H2268.08V1318.78ZM2268.08 1336.65H2287.55V1350.28H2268.08V1336.65ZM2268.08 1354.53H2287.55V1368.16H2268.08V1354.53ZM2268.08 1372.4H2287.55V1383.43H2268.08V1372.4ZM2268.08 1387.68H2287.55V1401.31H2268.08V1387.68ZM2268.08 1405.55H2287.55V1419.18H2268.08V1405.55ZM2343.56 1419.18H2324.09V1405.55H2343.56V1419.18ZM2343.56 1401.31H2324.09V1387.68H2343.56V1401.31ZM2343.56 1383.43H2324.09V1372.4H2343.56V1383.43ZM2343.56 1368.16H2324.09V1354.53H2343.56V1368.16ZM2343.56 1350.28H2324.09V1336.65H2343.56V1350.28ZM2343.56 1332.41H2324.09V1318.78H2343.56V1332.41ZM2343.56 1314.53H2324.09V1300.9H2343.56V1314.53ZM2343.56 1296.66H2324.09V1283.02H2343.56V1296.66ZM2343.56 1278.78H2324.09V1266.62H2343.56V1278.78ZM2343.56 1262.38H2324.09V1248.74H2343.56V1262.38ZM2343.56 1244.5H2324.09V1230.87H2343.56V1244.5ZM2343.56 1226.62H2324.09V1212.99H2343.56V1226.62ZM2343.56 1208.75H2324.09V1195.12H2343.56V1208.75ZM2343.56 1190.87H2324.09V1177.24H2343.56V1190.87ZM2343.56 1173H2324.09V1161.97H2343.56V1173ZM2343.56 1157.72H2324.09V1144.09H2343.56V1157.72ZM2343.56 1139.85H2324.09V1126.22H2343.56V1139.85ZM2343.56 1121.97H2324.09V1108.34H2343.56V1121.97ZM2343.56 1104.1H2324.09V1090.46H2343.56V1104.1ZM2343.56 1086.22H2324.09V1072.59H2343.56V1086.22ZM2343.56 1068.35H2324.09V1055.34H2343.56V1068.35ZM2343.56 1051.09H2324.09V1037.46H2343.56V1051.09ZM2343.56 1033.22H2324.09V1019.59H2343.56V1033.22ZM2343.56 1015.34H2324.09V1001.71H2343.56V1015.34ZM2343.56 997.467H2324.09V983.834H2343.56V997.467ZM2343.56 979.591H2324.09V965.958H2343.56V979.591ZM2343.56 961.716H2324.09V950.685H2343.56V961.716ZM2343.56 946.442H2324.09V932.81H2343.56V946.442ZM2343.56 928.567H2324.09V914.934H2343.56V928.567ZM2343.56 910.691H2324.09V897.058H2343.56V910.691ZM2343.56 892.816H2324.09V879.183H2343.56V892.816ZM2343.56 874.94H2324.09V861.307H2343.56V874.94Z" fill="#739AF0"/>
<path d="M2213.45 566.011H1898.07V1547.42H2213.45V566.011Z" fill="#739AF0"/>
<path opacity="0.5" d="M2126.47 700.873H1898.19V844.649H2126.47V700.873Z" fill="#AED3FF"/>
<path opacity="0.5" d="M2126.47 964.149H1898.19V1107.93H2126.47V964.149Z" fill="#AED3FF"/>
<path opacity="0.5" d="M2126.47 1224.03H1898.19V1367.8H2126.47V1224.03Z" fill="#AED3FF"/>
<path d="M2564.18 1366.88V1233.93H2213.57V565.459H2126.47V1547.42H2213.57H2565.89L2609.67 1366.88H2564.18Z" fill="#4A75CB"/>
<path d="M2517.94 1547.34L2525.62 1547.36V1535.06H2545.09V1547.39L2552.77 1547.4V1535.06H2568.89L2569.92 1530.81H2552.77V1517.18H2573.22L2582.56 1478.66H2581.62V1465.03H2585.87L2586.9 1460.78H2581.62V1447.15H2590.2L2591.23 1442.91H2581.62V1429.27H2594.54L2595.57 1425.03H2581.62V1411.4H2598.87L2599.9 1407.16H2581.62V1396.12H2601.09V1402.25L2608.78 1370.56V1360.37H2611.25L2612.27 1356.13H2608.78V1342.5H2615.58L2616.61 1338.25H2608.78V1324.62H2618.06V1320.38H2608.78V1306.74H2618.06V1302.5H2608.78V1289.49H2618.06V1285.25H2608.78V1271.62H2618.06V1267.37H2608.78V1253.74H2618.06V1249.5H2608.78V1235.86H2618.06V1231.62H2608.78V1217.99H2618.06V1213.75H2608.78V1200.11H2618.06V1195.87H2608.78V1184.84H2618.06V1180.6H2608.78V1166.96H2618.06V1162.72H2608.78V1149.09H2618.06V1144.84H2608.78V1131.21H2618.06V1126.97H2608.78V1113.34H2618.06V1109.09H2608.78V1095.46H2618.06V1091.22H2608.78V1063.22H2601.09V1091.22H2581.62V1063.22H2573.94V1091.22H2552.77V1063.22H2545.09V1091.22H2525.62V1063.22H2517.94V1091.22H2507.75V1095.46H2517.94V1109.09H2507.75V1113.34H2517.94V1126.97H2507.75V1131.21H2517.94V1144.84H2507.75V1149.09H2517.94V1162.72H2507.75V1166.96H2517.94V1180.6H2507.75V1184.84H2517.94V1195.87H2507.75V1200.11H2517.94V1213.75H2507.75V1217.99H2517.94V1231.62H2507.75V1235.86H2517.94V1249.5H2507.75V1253.74H2517.94V1267.37H2507.75V1271.62H2517.94V1285.25H2507.75V1289.49H2517.94V1302.5H2507.75V1306.74H2517.94V1320.38H2507.75V1324.62H2517.94V1338.25H2507.75V1342.5H2517.94V1356.13H2507.75V1360.37H2517.94V1374.01H2507.75V1378.25H2517.94V1391.88H2507.75V1396.12H2517.94V1407.16H2507.75V1411.4H2517.94V1425.03H2507.75V1429.27H2517.94V1442.91H2507.75V1447.15H2517.94V1460.78H2507.75V1465.03H2517.94V1478.66H2507.75V1482.9H2517.94V1496.53H2507.75V1500.78H2517.94V1512.94H2507.75V1517.18H2517.94V1530.81H2507.75V1535.06H2517.94V1547.34ZM2581.62 1095.46H2601.09V1109.1H2581.62V1095.46ZM2581.62 1113.34H2601.09V1126.97H2581.62V1113.34ZM2581.62 1131.21H2601.09V1144.85H2581.62V1131.21ZM2581.62 1149.09H2601.09V1162.72H2581.62V1149.09ZM2581.62 1166.97H2601.09V1180.6H2581.62V1166.97ZM2581.62 1184.84H2601.09V1195.87H2581.62V1184.84ZM2581.62 1200.11H2601.09V1213.75H2581.62V1200.11ZM2581.62 1217.99H2601.09V1231.62H2581.62V1217.99ZM2581.62 1235.87H2601.09V1249.5H2581.62V1235.87ZM2581.62 1253.74H2601.09V1267.38H2581.62V1253.74ZM2581.62 1271.62H2601.09V1285.25H2581.62V1271.62ZM2581.62 1289.49H2601.09V1302.5H2581.62V1289.49ZM2581.62 1306.75H2601.09V1320.38H2581.62V1306.75ZM2581.62 1324.62H2601.09V1338.26H2581.62V1324.62ZM2581.62 1342.5H2601.09V1356.13H2581.62V1342.5ZM2581.62 1360.37H2601.09V1374.01H2581.62V1360.37ZM2581.62 1378.25H2601.09V1391.88H2581.62V1378.25ZM2552.77 1095.46H2573.94V1109.1H2552.77V1095.46ZM2552.77 1113.34H2573.94V1126.97H2552.77V1113.34ZM2552.77 1131.21H2573.94V1144.85H2552.77V1131.21ZM2552.77 1149.09H2573.94V1162.72H2552.77V1149.09ZM2552.77 1166.97H2573.94V1180.6H2552.77V1166.97ZM2552.77 1184.84H2573.94V1195.87H2552.77V1184.84ZM2552.77 1200.11H2573.94V1213.75H2552.77V1200.11ZM2552.77 1217.99H2573.94V1231.62H2552.77V1217.99ZM2552.77 1235.87H2573.94V1249.5H2552.77V1235.87ZM2552.77 1253.74H2573.94V1267.38H2552.77V1253.74ZM2552.77 1271.62H2573.94V1285.25H2552.77V1271.62ZM2552.77 1289.49H2573.94V1302.5H2552.77V1289.49ZM2552.77 1306.75H2573.94V1320.38H2552.77V1306.75ZM2552.77 1324.62H2573.94V1338.26H2552.77V1324.62ZM2552.77 1342.5H2573.94V1356.13H2552.77V1342.5ZM2552.77 1360.37H2573.94V1374.01H2552.77V1360.37ZM2552.77 1378.25H2573.94V1391.88H2552.77V1378.25ZM2552.77 1396.12H2573.94V1407.16H2552.77V1396.12ZM2552.77 1411.4H2573.94V1425.03H2552.77V1411.4ZM2552.77 1429.27H2573.94V1442.91H2552.77V1429.27ZM2552.77 1447.15H2573.94V1460.78H2552.77V1447.15ZM2552.77 1465.03H2573.94V1478.66H2552.77V1465.03ZM2552.77 1482.9H2573.94V1496.53H2552.77V1482.9ZM2552.77 1500.78H2573.94V1512.94H2552.77V1500.78ZM2525.62 1095.46H2545.09V1109.1H2525.62V1095.46ZM2525.62 1113.34H2545.09V1126.97H2525.62V1113.34ZM2525.62 1131.21H2545.09V1144.85H2525.62V1131.21ZM2525.62 1149.09H2545.09V1162.72H2525.62V1149.09ZM2525.62 1166.97H2545.09V1180.6H2525.62V1166.97ZM2525.62 1184.84H2545.09V1195.87H2525.62V1184.84ZM2525.62 1200.11H2545.09V1213.75H2525.62V1200.11ZM2525.62 1217.99H2545.09V1231.62H2525.62V1217.99ZM2525.62 1235.87H2545.09V1249.5H2525.62V1235.87ZM2525.62 1253.74H2545.09V1267.38H2525.62V1253.74ZM2525.62 1271.62H2545.09V1285.25H2525.62V1271.62ZM2525.62 1289.49H2545.09V1302.5H2525.62V1289.49ZM2525.62 1306.75H2545.09V1320.38H2525.62V1306.75ZM2525.62 1324.62H2545.09V1338.26H2525.62V1324.62ZM2525.62 1342.5H2545.09V1356.13H2525.62V1342.5ZM2525.62 1360.37H2545.09V1374.01H2525.62V1360.37ZM2525.62 1378.25H2545.09V1391.88H2525.62V1378.25ZM2525.62 1396.12H2545.09V1407.16H2525.62V1396.12ZM2525.62 1411.4H2545.09V1425.03H2525.62V1411.4ZM2525.62 1429.27H2545.09V1442.91H2525.62V1429.27ZM2525.62 1447.15H2545.09V1460.78H2525.62V1447.15ZM2525.62 1465.03H2545.09V1478.66H2525.62V1465.03ZM2525.62 1482.9H2545.09V1496.53H2525.62V1482.9ZM2525.62 1500.78H2545.09V1512.94H2525.62V1500.78ZM2525.62 1517.18H2545.09V1530.81H2525.62V1517.18Z" fill="#739AF0"/>
<path d="M2883.21 1893.55H116.794C115.12 1893.55 113.751 1892.18 113.751 1890.51C113.751 1888.83 115.121 1887.46 116.794 1887.46H2883.21C2884.88 1887.46 2886.25 1888.83 2886.25 1890.51C2886.25 1892.18 2884.88 1893.55 2883.21 1893.55Z" fill="#283250"/>
<path d="M1898.07 999.657H1583.5V1547.42H1898.07V999.657Z" fill="#4A75CB"/>
<path d="M1629.27 1025.46H1604.27V1123.5H1629.27V1025.46Z" fill="white"/>
<path d="M1679.27 1025.46H1654.27V1123.5H1679.27V1025.46Z" fill="white"/>
<path d="M1729.1 1025.46H1704.1V1123.5H1729.1V1025.46Z" fill="white"/>
<path d="M1779.1 1025.46H1754.1V1123.5H1779.1V1025.46Z" fill="white"/>
<path d="M1829.1 1025.46H1804.1V1123.5H1829.1V1025.46Z" fill="white"/>
<path d="M1879.1 1025.46H1854.1V1123.5H1879.1V1025.46Z" fill="white"/>
<path d="M1629.27 1155.46H1604.27V1253.5H1629.27V1155.46Z" fill="#EBF2F9"/>
<path d="M1679.27 1155.46H1654.27V1253.5H1679.27V1155.46Z" fill="#EBF2F9"/>
<path d="M1729.1 1155.46H1704.1V1253.5H1729.1V1155.46Z" fill="#EBF2F9"/>
<path d="M1779.1 1155.46H1754.1V1253.5H1779.1V1155.46Z" fill="#EBF2F9"/>
<path d="M1829.1 1155.46H1804.1V1253.5H1829.1V1155.46Z" fill="#EBF2F9"/>
<path d="M1879.1 1155.46H1854.1V1253.5H1879.1V1155.46Z" fill="#EBF2F9"/>
<path d="M1629.27 1285.46H1604.27V1383.5H1629.27V1285.46Z" fill="#EBF2F9"/>
<path d="M1679.27 1285.46H1654.27V1383.5H1679.27V1285.46Z" fill="#EBF2F9"/>
<path d="M1729.1 1285.46H1704.1V1383.5H1729.1V1285.46Z" fill="#EBF2F9"/>
<path d="M1779.1 1285.46H1754.1V1383.5H1779.1V1285.46Z" fill="#EBF2F9"/>
<path d="M1829.1 1285.46H1804.1V1383.5H1829.1V1285.46Z" fill="#EBF2F9"/>
<path d="M1879.1 1285.46H1854.1V1383.5H1879.1V1285.46Z" fill="#EBF2F9"/>
<path d="M1629.27 1416.46H1604.27V1514.5H1629.27V1416.46Z" fill="#EBF2F9"/>
<path d="M1679.27 1416.46H1654.27V1514.5H1679.27V1416.46Z" fill="#EBF2F9"/>
<path d="M1729.1 1416.46H1704.1V1514.5H1729.1V1416.46Z" fill="#EBF2F9"/>
<path d="M1779.1 1416.46H1754.1V1514.5H1779.1V1416.46Z" fill="#EBF2F9"/>
<path d="M1829.1 1416.46H1804.1V1514.5H1829.1V1416.46Z" fill="#EBF2F9"/>
<path d="M1879.1 1416.46H1854.1V1514.5H1879.1V1416.46Z" fill="#EBF2F9"/>
<path d="M1869.94 856.123H1746.6V1003.34H1869.94V856.123Z" fill="#4A75CB"/>
</g>
<defs>
<clipPath id="clip0_5_990">
<rect width="3000" height="2000" fill="white"/>
</clipPath>
</defs>
</svg>
