<svg width="32" height="29" viewBox="0 0 32 29" fill="none" xmlns="http://www.w3.org/2000/svg">
<path d="M20.4981 0.831583C18.7033 1.69767 17.3571 3.15716 16.374 4.81208C14.7933 2.15491 12.2806 0 8.47487 0C4.66767 0 0 3.23106 0 8.68905C0 14.2149 4.61103 16.8342 6.89497 18.3132C9.33608 19.8927 13.5015 22.7644 16.3736 28.0791C19.2468 22.7648 23.4115 19.8927 25.8533 18.3132C27.569 17.2011 30.6001 15.4449 32 12.2941L20.4981 0.831583ZM20.3605 12.6077V2.22356L30.7446 12.6073L20.3605 12.6077Z" fill="#E5322D"/>
<path d="M20.3604 12.6077V2.22363L30.7444 12.6077H20.3604Z" fill="white"/>
</svg>
